<?xml version="1.0" standalone="no"?>
<!DOCTYPE svg PUBLIC "-//W3C//DTD SVG 20010904//EN"
 "http://www.w3.org/TR/2001/REC-SVG-20010904/DTD/svg10.dtd">
<svg version="1.0" xmlns="http://www.w3.org/2000/svg"
 width="260.000000pt" height="260.000000pt" viewBox="0 0 260.000000 260.000000"
 preserveAspectRatio="xMidYMid meet">
<metadata>
Created by potrace 1.14, written by Peter Selinger 2001-2017
</metadata>
<g transform="translate(0.000000,260.000000) scale(0.100000,-0.100000)"
fill="#000000" stroke="none">
<path d="M1150 2593 c-317 -47 -551 -163 -765 -377 -265 -266 -388 -573 -380
-946 2 -80 7 -158 10 -175 21 -100 28 -128 52 -205 25 -77 116 -270 142 -302
6 -7 31 -39 55 -71 195 -256 464 -426 786 -493 131 -28 382 -26 519 5 250 55
460 168 639 344 201 197 327 438 376 722 13 76 15 329 3 400 -19 112 -60 250
-98 329 -10 21 -16 43 -13 47 3 5 1 9 -5 9 -5 0 -13 9 -16 20 -9 29 -109 175
-160 236 -205 240 -499 405 -800 451 -40 6 -313 11 -345 6z m210 -577 c66 -10
83 -15 144 -44 61 -28 116 -75 147 -122 l16 -25 9 55 c4 30 9 58 10 63 1 4 2
15 3 26 1 17 13 18 222 18 l220 0 -3 -26 c-2 -14 -10 -32 -18 -39 -8 -8 -9
-11 -2 -7 9 5 11 -3 8 -27 -3 -18 -8 -53 -11 -78 -5 -44 -32 -240 -40 -290 -6
-40 -18 -129 -31 -225 -3 -27 -8 -59 -10 -69 -2 -11 -8 -56 -14 -100 -6 -45
-13 -92 -15 -106 -2 -14 -11 -78 -20 -142 -9 -65 -18 -125 -19 -135 -2 -10 -7
-46 -11 -80 l-7 -63 -223 1 -223 1 4 31 c2 18 7 45 9 62 l5 29 -37 -36 c-40
-38 -131 -88 -167 -92 -12 -1 -27 -5 -33 -9 -13 -8 -77 -17 -155 -21 -209 -11
-387 99 -482 298 -58 121 -79 218 -78 356 6 408 208 704 532 780 52 13 205 28
225 23 6 -1 26 -4 45 -7z"/>
<path d="M1276 1901 c-3 -5 1 -11 9 -14 9 -4 12 -1 8 9 -6 16 -10 17 -17 5z"/>
<path d="M1035 1890 c-3 -6 1 -7 9 -4 18 7 21 14 7 14 -6 0 -13 -4 -16 -10z"/>
<path d="M1386 1887 c3 -10 9 -15 12 -12 3 3 0 11 -7 18 -10 9 -11 8 -5 -6z"/>
<path d="M1475 1889 c-4 -6 -5 -12 -2 -15 2 -3 7 2 10 11 7 17 1 20 -8 4z"/>
<path d="M1255 1570 c-81 -13 -162 -73 -200 -150 -10 -19 -20 -67 -23 -105 -3
-58 0 -80 17 -121 74 -172 289 -222 428 -100 123 108 127 295 8 405 -69 63
-140 85 -230 71z"/>
<path d="M281 2548 c5 -10 11 -18 12 -18 2 0 3 8 3 18 0 10 -6 19 -13 19 -8 0
-9 -6 -2 -19z"/>
<path d="M441 2547 c-13 -21 -12 -21 5 -5 10 10 16 20 13 22 -3 3 -11 -5 -18
-17z"/>
<path d="M2191 2554 c0 -11 3 -14 6 -6 3 7 2 16 -1 19 -3 4 -6 -2 -5 -13z"/>
<path d="M55 2540 c3 -5 8 -10 11 -10 2 0 4 5 4 10 0 6 -5 10 -11 10 -5 0 -7
-4 -4 -10z"/>
<path d="M215 2541 c-3 -5 -2 -12 3 -15 5 -3 9 1 9 9 0 17 -3 19 -12 6z"/>
<path d="M2050 2540 c0 -5 5 -10 11 -10 5 0 7 5 4 10 -3 6 -8 10 -11 10 -2 0
-4 -4 -4 -10z"/>
<path d="M107 601 c-4 -17 -3 -21 5 -13 5 5 8 16 6 23 -3 8 -7 3 -11 -10z"/>
<path d="M2442 604 c-7 -8 -8 -14 -3 -14 10 0 25 19 20 25 -2 1 -10 -3 -17
-11z"/>
</g>
</svg>
