<?xml version="1.0" standalone="no"?>
<!DOCTYPE svg PUBLIC "-//W3C//DTD SVG 20010904//EN"
 "http://www.w3.org/TR/2001/REC-SVG-20010904/DTD/svg10.dtd">
<svg version="1.0" xmlns="http://www.w3.org/2000/svg"
 width="290.000000pt" height="65.000000pt" viewBox="0 0 290.000000 65.000000"
 preserveAspectRatio="xMidYMid meet">

<g transform="translate(0.000000,65.000000) scale(0.100000,-0.100000)"
fill="#000000" stroke="none">
<path d="M649 621 c-33 -33 -35 -50 -14 -90 45 -89 175 -20 139 74 -7 18 -55
45 -79 45 -9 0 -30 -13 -46 -29z"/>
<path d="M2235 638 c-30 -17 -44 -40 -45 -71 0 -38 40 -77 80 -77 36 0 80 38
80 69 0 33 -21 68 -47 80 -30 14 -43 13 -68 -1z"/>
<path d="M177 506 c-90 -33 -151 -111 -170 -220 -21 -123 30 -237 120 -267 49
-16 128 -6 163 20 36 26 39 26 33 1 -5 -20 -2 -21 73 -18 l79 3 35 235 36 235
-75 3 c-61 2 -76 0 -84 -13 -8 -15 -11 -15 -26 -1 -17 15 -90 36 -126 35 -11
0 -37 -6 -58 -13z m145 -173 c40 -38 39 -93 -1 -134 -41 -40 -91 -40 -132 0
-88 88 43 220 133 134z"/>
<path d="M1335 508 c-55 -15 -137 -99 -158 -162 -20 -57 -22 -158 -5 -207 39
-115 152 -161 262 -105 43 22 46 22 41 5 -6 -18 0 -19 74 -19 45 0 81 2 81 4
0 2 16 105 35 229 19 124 35 230 35 236 0 7 -30 11 -80 11 -64 0 -80 -3 -80
-15 0 -20 -5 -19 -38 5 -33 24 -114 33 -167 18z m126 -158 c29 -16 51 -67 44
-100 -3 -16 -18 -40 -32 -54 -67 -68 -185 13 -151 103 19 53 88 78 139 51z"/>
<path d="M1870 511 c-92 -20 -140 -73 -140 -153 0 -66 38 -108 130 -143 69
-27 87 -44 67 -64 -27 -27 -134 -6 -198 40 l-26 18 -10 -71 -9 -70 29 -19 c77
-46 221 -51 296 -8 27 15 48 37 61 64 24 50 25 63 4 115 -18 43 -58 72 -146
105 -32 12 -48 23 -48 35 0 36 64 40 142 10 29 -11 54 -20 55 -20 1 0 5 17 8
38 4 20 9 49 11 64 5 24 1 27 -43 42 -61 19 -138 27 -183 17z"/>
<path d="M2543 511 c-185 -46 -256 -354 -107 -467 33 -25 46 -29 105 -29 54 0
73 4 98 23 37 27 41 27 34 2 -5 -19 0 -20 76 -20 53 0 81 4 81 11 0 13 58 402
66 442 l6 27 -81 0 c-65 0 -81 -3 -81 -15 0 -20 -5 -19 -38 4 -31 22 -112 33
-159 22z m131 -176 c41 -38 39 -97 -5 -137 -49 -46 -114 -35 -145 24 -49 94
71 186 150 113z"/>
<path d="M915 500 l-70 -5 -35 -233 c-20 -128 -34 -235 -31 -237 2 -3 37 -5
77 -5 84 0 72 -23 104 189 18 113 19 142 9 181 -10 40 -10 52 5 80 9 18 15 34
14 34 -2 1 -34 -1 -73 -4z"/>
<path d="M1043 495 c-62 -26 -59 -120 5 -143 34 -12 85 6 96 33 28 75 -30 140
-101 110z"/>
<path d="M610 463 c0 -16 -14 -113 -30 -218 -16 -104 -30 -198 -30 -208 0 -16
9 -18 77 -15 l77 3 33 220 c18 121 32 223 33 227 0 3 -13 0 -29 -8 -32 -16
-84 -10 -102 12 -18 22 -29 17 -29 -13z"/>
<path d="M2150 265 c-18 -121 -35 -226 -38 -232 -3 -10 16 -13 76 -13 l81 0 7
48 c4 26 19 126 34 222 15 96 26 176 25 177 0 1 -17 -3 -37 -9 -31 -9 -43 -8
-76 9 l-39 19 -33 -221z"/>
</g>
</svg>
